<svg width="13" height="14" viewBox="0 0 13 14" fill="none" xmlns="http://www.w3.org/2000/svg">
<path d="M6.00167 10.8198L9.8019 7.01953C9.90792 6.9135 9.96094 6.78795 9.96094 6.64286C9.96094 6.49777 9.90792 6.37221 9.8019 6.26618L6.00167 2.46596C5.89565 2.35993 5.77009 2.30692 5.625 2.30692C5.47991 2.30692 5.35435 2.35993 5.24833 2.46596L4.39453 3.31975C4.2885 3.42578 4.23549 3.55134 4.23549 3.69643C4.23549 3.84152 4.2885 3.96708 4.39453 4.0731L6.96429 6.64286L4.39453 9.21261C4.2885 9.31864 4.23549 9.4442 4.23549 9.58929C4.23549 9.73437 4.2885 9.85993 4.39453 9.96596L5.24833 10.8198C5.35435 10.9258 5.47991 10.9788 5.625 10.9788C5.77009 10.9788 5.89565 10.9258 6.00167 10.8198ZM11.995 3.4202C12.5698 4.40234 12.8571 5.47656 12.8571 6.64286C12.8571 7.80915 12.5698 8.88616 11.995 9.87388C11.4202 10.856 10.639 11.6345 9.65123 12.2093C8.66909 12.784 7.59487 13.0714 6.42857 13.0714C5.26228 13.0714 4.18527 12.784 3.19754 12.2093C2.2154 11.6345 1.43694 10.856 0.862165 9.87388C0.287388 8.88616 0 7.80915 0 6.64286C0 5.47656 0.287388 4.40234 0.862165 3.4202C1.43694 2.43248 2.2154 1.65123 3.19754 1.07645C4.18527 0.501674 5.26228 0.214285 6.42857 0.214285C7.59487 0.214285 8.66909 0.501674 9.65123 1.07645C10.639 1.65123 11.4202 2.43248 11.995 3.4202Z" fill="#F25252"/>
</svg>
